<?xml version="1.0" encoding="utf-8"?>
<!-- Generator: Adobe Illustrator 25.2.1, SVG Export Plug-In . SVG Version: 6.00 Build 0)  -->
<svg version="1.1" id="图层_1" xmlns="http://www.w3.org/2000/svg" xmlns:xlink="http://www.w3.org/1999/xlink" x="0px" y="0px"
	 viewBox="0 0 800 800" style="enable-background:new 0 0 800 800;" xml:space="preserve">
<style type="text/css">
	.st0{clip-path:url(#SVGID_2_);fill:#FFFFFF;}
	.st1{clip-path:url(#SVGID_2_);fill:#BAE2CC;}
	.st2{clip-path:url(#SVGID_2_);fill:#97D5FF;}
	.st3{clip-path:url(#SVGID_2_);}
	.st4{fill:#D4C4D8;}
	.st5{fill:#FAD5E8;}
	.st6{fill:#FDD9D9;}
	.st7{fill:#FFECDA;}
	.st8{fill:#CCDCE7;}
	.st9{fill:#E5EEDA;}
	.st10{fill:#FEFFD9;}
	.st11{fill:#C4D9CC;}
</style>
<g>
	<defs>
		<path id="SVGID_1_" d="M700.2,801.4h-600c-55.2,0-100-44.8-100-100v-600c0-55.2,44.8-100,100-100h600c55.2,0,100,44.8,100,100v600
			C800.2,756.6,755.4,801.4,700.2,801.4z"/>
	</defs>
	<clipPath id="SVGID_2_">
		<use xlink:href="#SVGID_1_"  style="overflow:visible;"/>
	</clipPath>
	<path class="st0" d="M700.2,801.4h-600c-55.2,0-100-44.8-100-100v-600c0-55.2,44.8-100,100-100h600c55.2,0,100,44.8,100,100v600
		C800.2,756.6,755.4,801.4,700.2,801.4z"/>
	<path class="st1" d="M108.1,802.8c109-142.2,155.4-280.2,137.9-410.3c-11.8-87.3-50.7-156.1-87.1-203.4
		C186.6,481.4,54.6,707.9-40.7,830.2c9.5-3.4,19-6.5,28.6-9.2C28,809.3,68.1,803.3,108.1,802.8z"/>
	<path class="st2" d="M190.6,145.4c43.3,52.9,92.4,134,106.7,240.3c18.3,135.5-24.6,276.9-127.5,420.8
		c34.8,4.6,69.3,13.3,103.6,26.3c125.3,47.6,212.3,71,275.7,77.3C605.2,473.1,303.4,222.6,190.6,145.4z"/>
	<g class="st3">
		<path class="st4" d="M521.7,327.5c-7.6-10.2-12.8-22.4-14.7-35.6h-56.5c2.4,28.7,13.8,54.8,31.3,75.6L521.7,327.5z"/>
		<path class="st5" d="M507,268.6c1.9-13.2,7.1-25.4,14.7-35.6l-39.9-39.9c-17.5,20.8-28.8,46.9-31.3,75.5H507z"/>
		<path class="st6" d="M538.2,216.6c10.2-7.6,22.4-12.8,35.6-14.7v-56.5c-28.7,2.4-54.8,13.8-75.6,31.3L538.2,216.6z"/>
		<path class="st7" d="M597.1,145.4v56.5c13.2,1.9,25.4,7.1,35.6,14.7l39.9-39.9C651.8,159.1,625.7,147.8,597.1,145.4z"/>
		<path class="st8" d="M573.8,358.7c-13.2-1.9-25.4-7.1-35.6-14.7l-39.9,39.9c20.8,17.5,46.9,28.8,75.6,31.3V358.7z"/>
		<path class="st9" d="M663.9,291.9c-1.9,13.2-7.1,25.4-14.7,35.6l39.9,39.9c17.5-20.8,28.8-46.9,31.3-75.6H663.9z"/>
		<path class="st10" d="M649.1,233c7.6,10.2,12.8,22.4,14.7,35.6h56.5c-2.4-28.7-13.8-54.8-31.3-75.5L649.1,233z"/>
		<path class="st11" d="M632.7,344c-10.2,7.6-22.4,12.8-35.6,14.8v56.5c28.7-2.4,54.8-13.8,75.6-31.3L632.7,344z"/>
	</g>
</g>
</svg>
